REM DIRINDEX 1\2\3,1\2\4,1\2\5,1\2\6
REM DIRNAME cjc157,folder01,folder02,folder03,folder04,folder05
TITLE ""
FILE "166 166.mp3" MP3
  TRACK 01 AUDIO
    TITLE "0:"
    INDEX 01 00:00:00
  TRACK 02 AUDIO
    TITLE "3:cjc157_6061"
    INDEX 01 00:00:13
  TRACK 03 AUDIO
    TITLE "0:"
    INDEX 01 00:01:56
  TRACK 04 AUDIO
    TITLE "4:cjc157_6062"
    INDEX 01 00:02:26
  TRACK 05 AUDIO
    TITLE "0:"
    INDEX 01 00:03:39
  TRACK 06 AUDIO
    TITLE "5:cjc157_6063"
    INDEX 01 00:04:09
  TRACK 07 AUDIO
    TITLE "0:"
    INDEX 01 00:08:40
  TRACK 08 AUDIO
    TITLE "5:cjc157_6064"
    INDEX 01 00:09:10
  TRACK 09 AUDIO
    TITLE "0:"
    INDEX 01 00:13:57
  TRACK 10 AUDIO
    TITLE "5:cjc157_6065"
    INDEX 01 00:14:27
  TRACK 11 AUDIO
    TITLE "0:"
    INDEX 01 00:17:08
  TRACK 12 AUDIO
    TITLE "3:cjc157_6066"
    INDEX 01 00:17:57
  TRACK 13 AUDIO
    TITLE "0:"
    INDEX 01 00:19:16
  TRACK 14 AUDIO
    TITLE "4:cjc157_6067"
    INDEX 01 00:19:65
  TRACK 15 AUDIO
    TITLE "0:"
    INDEX 01 00:21:21
  TRACK 16 AUDIO
    TITLE "5:cjc157_6068"
    INDEX 01 00:21:68
  TRACK 17 AUDIO
    TITLE "0:"
    INDEX 01 00:24:49
  TRACK 18 AUDIO
    TITLE "5:cjc157_6069"
    INDEX 01 00:25:17
  TRACK 19 AUDIO
    TITLE "0:"
    INDEX 01 00:28:06
  TRACK 20 AUDIO
    TITLE "3:cjc157_6070"
    INDEX 01 00:28:53
  TRACK 21 AUDIO
    TITLE "0:"
    INDEX 01 00:30:24
  TRACK 22 AUDIO
    TITLE "4:cjc157_6071"
    INDEX 01 00:30:65
  TRACK 23 AUDIO
    TITLE "0:"
    INDEX 01 00:32:50
  TRACK 24 AUDIO
    TITLE "5:cjc157_6072"
    INDEX 01 00:33:17
  TRACK 25 AUDIO
    TITLE "0:"
    INDEX 01 00:36:40
  TRACK 26 AUDIO
    TITLE "3:cjc157_6073"
    INDEX 01 00:37:12
  TRACK 27 AUDIO
    TITLE "0:"
    INDEX 01 00:38:41
  TRACK 28 AUDIO
    TITLE "4:cjc157_6074"
    INDEX 01 00:39:11
  TRACK 29 AUDIO
    TITLE "0:"
    INDEX 01 00:41:18
  TRACK 30 AUDIO
    TITLE "5:cjc157_6075"
    INDEX 01 00:41:63
  TRACK 31 AUDIO
    TITLE "0:"
    INDEX 01 00:45:37
  TRACK 32 AUDIO
    TITLE "3:cjc157_6076"
    INDEX 01 00:46:09
  TRACK 33 AUDIO
    TITLE "0:"
    INDEX 01 00:47:74
  TRACK 34 AUDIO
    TITLE "4:cjc157_6077"
    INDEX 01 00:48:44
  TRACK 35 AUDIO
    TITLE "0:"
    INDEX 01 00:50:23
  TRACK 36 AUDIO
    TITLE "5:cjc157_6078"
    INDEX 01 00:50:66
  TRACK 37 AUDIO
    TITLE "0:"
    INDEX 01 00:53:70
  TRACK 38 AUDIO
    TITLE "3:cjc157_6079"
    INDEX 01 00:54:42
  TRACK 39 AUDIO
    TITLE "0:"
    INDEX 01 00:56:24
  TRACK 40 AUDIO
    TITLE "4:cjc157_6080"
    INDEX 01 00:56:65
  TRACK 41 AUDIO
    TITLE "0:"
    INDEX 01 00:58:40
  TRACK 42 AUDIO
    TITLE "5:cjc157_6081"
    INDEX 01 00:59:04
  TRACK 43 AUDIO
    TITLE "0:"
    INDEX 01 01:01:54
  TRACK 44 AUDIO
    TITLE "3:cjc157_6082"
    INDEX 01 01:02:38
  TRACK 45 AUDIO
    TITLE "0:"
    INDEX 01 01:04:21
  TRACK 46 AUDIO
    TITLE "4:cjc157_6083"
    INDEX 01 01:04:68
  TRACK 47 AUDIO
    TITLE "0:"
    INDEX 01 01:06:20
  TRACK 48 AUDIO
    TITLE "5:cjc157_6084"
    INDEX 01 01:06:69
  TRACK 49 AUDIO
    TITLE "0:"
    INDEX 01 01:11:13
  TRACK 50 AUDIO
    TITLE "5:cjc157_6085"
    INDEX 01 01:11:60
  TRACK 51 AUDIO
    TITLE "0:"
    INDEX 01 01:15:46
  TRACK 52 AUDIO
    TITLE "3:cjc157_6086"
    INDEX 01 01:16:14
  TRACK 53 AUDIO
    TITLE "0:"
    INDEX 01 01:17:69
  TRACK 54 AUDIO
    TITLE "4:cjc157_6087"
    INDEX 01 01:18:41
  TRACK 55 AUDIO
    TITLE "0:"
    INDEX 01 01:20:24
  TRACK 56 AUDIO
    TITLE "5:cjc157_6088"
    INDEX 01 01:20:69
  TRACK 57 AUDIO
    TITLE "0:"
    INDEX 01 01:24:14
  TRACK 58 AUDIO
    TITLE "3:cjc157_6089"
    INDEX 01 01:24:57
  TRACK 59 AUDIO
    TITLE "0:"
    INDEX 01 01:26:19
  TRACK 60 AUDIO
    TITLE "4:cjc157_6090"
    INDEX 01 01:26:62
  TRACK 61 AUDIO
    TITLE "0:"
    INDEX 01 01:28:18
  TRACK 62 AUDIO
    TITLE "5:cjc157_6091"
    INDEX 01 01:28:63
  TRACK 63 AUDIO
    TITLE "0:"
    INDEX 01 01:32:08
  TRACK 64 AUDIO
    TITLE "3:cjc157_6092"
    INDEX 01 01:32:55
  TRACK 65 AUDIO
    TITLE "0:"
    INDEX 01 01:34:22
  TRACK 66 AUDIO
    TITLE "4:cjc157_6093"
    INDEX 01 01:34:69
  TRACK 67 AUDIO
    TITLE "0:"
    INDEX 01 01:36:41
  TRACK 68 AUDIO
    TITLE "5:cjc157_6094"
    INDEX 01 01:37:13
  TRACK 69 AUDIO
    TITLE "0:"
    INDEX 01 01:40:27
